<?xml version='1.0' encoding='UTF-8'?>
<!DOCTYPE svg PUBLIC "-//W3C//DTD SVG 1.0//EN" "http://www.w3.org/TR/2001/REC-SVG-20010904/DTD/svg10.dtd">
<svg viewBox="0 0 896 568" xmlns="http://www.w3.org/2000/svg" xmlns:inkspace="http://www.inkscape.org/namespaces/inkscape" xmlns:xlink="http://www.w3.org/1999/xlink">
  <defs id="defs_block">
    <filter height="1.504" id="filter_blur" inkspace:collect="always" width="1.1575" x="-0.07875" y="-0.252">
      <feGaussianBlur id="feGaussianBlur3780" inkspace:collect="always" stdDeviation="4.2" />
    </filter>
  </defs>
  <title>blockdiag</title>
  <desc>packetdiag {
  colwidth = 32;
  node_height = 64;

  0-31: Start-Line\n(Request-Line or Status-Line);
  32-63: Header Field 1:\nHost: www.example.com;
  64-95: Header Field 2:\nUser-Agent: ...;
  96-127: Header Field 3:\nAccept: ...;
  128-159: Header Field N:\n(field-name: value);
  160-191: CRLF\n(blank line);
  192-223: Message Body\n(optional);
}</desc>
  <path d="M 64 48 L 64 80" fill="none" stroke="rgb(0,0,0)" />
  <text fill="rgb(0,0,0)" font-family="sans-serif" font-size="11" font-style="normal" font-weight="normal" text-anchor="middle" textLength="7" x="64.5" y="42">0</text>
  <path d="M 88 64 L 88 80" fill="none" stroke="rgb(0,0,0)" />
  <path d="M 112 64 L 112 80" fill="none" stroke="rgb(0,0,0)" />
  <path d="M 136 64 L 136 80" fill="none" stroke="rgb(0,0,0)" />
  <path d="M 160 64 L 160 80" fill="none" stroke="rgb(0,0,0)" />
  <path d="M 184 64 L 184 80" fill="none" stroke="rgb(0,0,0)" />
  <path d="M 208 64 L 208 80" fill="none" stroke="rgb(0,0,0)" />
  <path d="M 232 64 L 232 80" fill="none" stroke="rgb(0,0,0)" />
  <path d="M 256 48 L 256 80" fill="none" stroke="rgb(0,0,0)" />
  <path d="M 280 64 L 280 80" fill="none" stroke="rgb(0,0,0)" />
  <path d="M 304 64 L 304 80" fill="none" stroke="rgb(0,0,0)" />
  <path d="M 328 64 L 328 80" fill="none" stroke="rgb(0,0,0)" />
  <path d="M 352 64 L 352 80" fill="none" stroke="rgb(0,0,0)" />
  <path d="M 376 64 L 376 80" fill="none" stroke="rgb(0,0,0)" />
  <path d="M 400 64 L 400 80" fill="none" stroke="rgb(0,0,0)" />
  <path d="M 424 64 L 424 80" fill="none" stroke="rgb(0,0,0)" />
  <path d="M 448 48 L 448 80" fill="none" stroke="rgb(0,0,0)" />
  <text fill="rgb(0,0,0)" font-family="sans-serif" font-size="11" font-style="normal" font-weight="normal" text-anchor="middle" textLength="14" x="448.0" y="42">16</text>
  <path d="M 472 64 L 472 80" fill="none" stroke="rgb(0,0,0)" />
  <path d="M 496 64 L 496 80" fill="none" stroke="rgb(0,0,0)" />
  <path d="M 520 64 L 520 80" fill="none" stroke="rgb(0,0,0)" />
  <path d="M 544 64 L 544 80" fill="none" stroke="rgb(0,0,0)" />
  <path d="M 568 64 L 568 80" fill="none" stroke="rgb(0,0,0)" />
  <path d="M 592 64 L 592 80" fill="none" stroke="rgb(0,0,0)" />
  <path d="M 616 64 L 616 80" fill="none" stroke="rgb(0,0,0)" />
  <path d="M 640 48 L 640 80" fill="none" stroke="rgb(0,0,0)" />
  <path d="M 664 64 L 664 80" fill="none" stroke="rgb(0,0,0)" />
  <path d="M 688 64 L 688 80" fill="none" stroke="rgb(0,0,0)" />
  <path d="M 712 64 L 712 80" fill="none" stroke="rgb(0,0,0)" />
  <path d="M 736 64 L 736 80" fill="none" stroke="rgb(0,0,0)" />
  <path d="M 760 64 L 760 80" fill="none" stroke="rgb(0,0,0)" />
  <path d="M 784 64 L 784 80" fill="none" stroke="rgb(0,0,0)" />
  <path d="M 808 64 L 808 80" fill="none" stroke="rgb(0,0,0)" />
  <path d="M 832 48 L 832 80" fill="none" stroke="rgb(0,0,0)" />
  <text fill="rgb(0,0,0)" font-family="sans-serif" font-size="11" font-style="normal" font-weight="normal" text-anchor="middle" textLength="14" x="832.0" y="42">32</text>
  <rect fill="rgb(255,255,255)" height="64" stroke="rgb(255,255,255)" width="768" x="64" y="80" />
  <path d="M 64 80 L 832 80" fill="none" stroke="rgb(0,0,0)" />
  <path d="M 832 80 L 832 144" fill="none" stroke="rgb(0,0,0)" />
  <path d="M 832 144 L 64 144" fill="none" stroke="rgb(0,0,0)" />
  <path d="M 64 144 L 64 80" fill="none" stroke="rgb(0,0,0)" />
  <text fill="rgb(0,0,0)" font-family="sans-serif" font-size="11" font-style="normal" font-weight="normal" text-anchor="middle" textLength="56" x="448.0" y="110">Start-Line</text>
  <text fill="rgb(0,0,0)" font-family="sans-serif" font-size="11" font-style="normal" font-weight="normal" text-anchor="middle" textLength="165" x="448.5" y="125">(Request-Line or Status-Line)</text>
  <rect fill="rgb(255,255,255)" height="64" stroke="rgb(255,255,255)" width="768" x="64" y="144" />
  <path d="M 64 144 L 832 144" fill="none" stroke="rgb(0,0,0)" />
  <path d="M 832 144 L 832 208" fill="none" stroke="rgb(0,0,0)" />
  <path d="M 832 208 L 64 208" fill="none" stroke="rgb(0,0,0)" />
  <path d="M 64 208 L 64 144" fill="none" stroke="rgb(0,0,0)" />
  <text fill="rgb(0,0,0)" font-family="sans-serif" font-size="11" font-style="normal" font-weight="normal" text-anchor="middle" textLength="87" x="448.5" y="174">Header Field 1:</text>
  <text fill="rgb(0,0,0)" font-family="sans-serif" font-size="11" font-style="normal" font-weight="normal" text-anchor="middle" textLength="138" x="448.0" y="189">Host: www.example.com</text>
  <rect fill="rgb(255,255,255)" height="64" stroke="rgb(255,255,255)" width="768" x="64" y="208" />
  <path d="M 64 208 L 832 208" fill="none" stroke="rgb(0,0,0)" />
  <path d="M 832 208 L 832 272" fill="none" stroke="rgb(0,0,0)" />
  <path d="M 832 272 L 64 272" fill="none" stroke="rgb(0,0,0)" />
  <path d="M 64 272 L 64 208" fill="none" stroke="rgb(0,0,0)" />
  <text fill="rgb(0,0,0)" font-family="sans-serif" font-size="11" font-style="normal" font-weight="normal" text-anchor="middle" textLength="87" x="448.5" y="238">Header Field 2:</text>
  <text fill="rgb(0,0,0)" font-family="sans-serif" font-size="11" font-style="normal" font-weight="normal" text-anchor="middle" textLength="81" x="448.5" y="253">User-Agent: ...</text>
  <rect fill="rgb(255,255,255)" height="64" stroke="rgb(255,255,255)" width="768" x="64" y="272" />
  <path d="M 64 272 L 832 272" fill="none" stroke="rgb(0,0,0)" />
  <path d="M 832 272 L 832 336" fill="none" stroke="rgb(0,0,0)" />
  <path d="M 832 336 L 64 336" fill="none" stroke="rgb(0,0,0)" />
  <path d="M 64 336 L 64 272" fill="none" stroke="rgb(0,0,0)" />
  <text fill="rgb(0,0,0)" font-family="sans-serif" font-size="11" font-style="normal" font-weight="normal" text-anchor="middle" textLength="87" x="448.5" y="302">Header Field 3:</text>
  <text fill="rgb(0,0,0)" font-family="sans-serif" font-size="11" font-style="normal" font-weight="normal" text-anchor="middle" textLength="57" x="448.5" y="317">Accept: ...</text>
  <rect fill="rgb(255,255,255)" height="64" stroke="rgb(255,255,255)" width="768" x="64" y="336" />
  <path d="M 64 336 L 832 336" fill="none" stroke="rgb(0,0,0)" />
  <path d="M 832 336 L 832 400" fill="none" stroke="rgb(0,0,0)" />
  <path d="M 832 400 L 64 400" fill="none" stroke="rgb(0,0,0)" />
  <path d="M 64 400 L 64 336" fill="none" stroke="rgb(0,0,0)" />
  <text fill="rgb(0,0,0)" font-family="sans-serif" font-size="11" font-style="normal" font-weight="normal" text-anchor="middle" textLength="90" x="448.0" y="367">Header Field N:</text>
  <text fill="rgb(0,0,0)" font-family="sans-serif" font-size="11" font-style="normal" font-weight="normal" text-anchor="middle" textLength="104" x="448.0" y="381">(field-name: value)</text>
  <rect fill="rgb(255,255,255)" height="64" stroke="rgb(255,255,255)" width="768" x="64" y="400" />
  <path d="M 64 400 L 832 400" fill="none" stroke="rgb(0,0,0)" />
  <path d="M 832 400 L 832 464" fill="none" stroke="rgb(0,0,0)" />
  <path d="M 832 464 L 64 464" fill="none" stroke="rgb(0,0,0)" />
  <path d="M 64 464 L 64 400" fill="none" stroke="rgb(0,0,0)" />
  <text fill="rgb(0,0,0)" font-family="sans-serif" font-size="11" font-style="normal" font-weight="normal" text-anchor="middle" textLength="32" x="448.0" y="431">CRLF</text>
  <text fill="rgb(0,0,0)" font-family="sans-serif" font-size="11" font-style="normal" font-weight="normal" text-anchor="middle" textLength="64" x="448.0" y="445">(blank line)</text>
  <rect fill="rgb(255,255,255)" height="64" stroke="rgb(255,255,255)" width="768" x="64" y="464" />
  <path d="M 64 464 L 832 464" fill="none" stroke="rgb(0,0,0)" />
  <path d="M 832 464 L 832 528" fill="none" stroke="rgb(0,0,0)" />
  <path d="M 832 528 L 64 528" fill="none" stroke="rgb(0,0,0)" />
  <path d="M 64 528 L 64 464" fill="none" stroke="rgb(0,0,0)" />
  <text fill="rgb(0,0,0)" font-family="sans-serif" font-size="11" font-style="normal" font-weight="normal" text-anchor="middle" textLength="81" x="448.5" y="495">Message Body</text>
  <text fill="rgb(0,0,0)" font-family="sans-serif" font-size="11" font-style="normal" font-weight="normal" text-anchor="middle" textLength="54" x="448.0" y="510">(optional)</text>
</svg>
